<?xml version="1.0" encoding="utf-8"?>
<!-- Generator: Adobe Illustrator 22.1.0, SVG Export Plug-In . SVG Version: 6.00 Build 0)  -->
<svg version="1.1" id="Слой_1" xmlns="http://www.w3.org/2000/svg" xmlns:xlink="http://www.w3.org/1999/xlink" x="0px" y="0px"
	 viewBox="0 0 240.9 155.9" style="enable-background:new 0 0 240.9 155.9;" xml:space="preserve">
<style type="text/css">
	.st0{fill:#020203;}
</style>
<g>
	<path class="st0" d="M110.2,75.3c0-0.2-0.1-1.7,0-1.7c-1.2,0.4-2.5,0.8-3.8,1.2c0-2,0-3.9,0-5.9c0-3.2,0-6.3,0-9.5
		c0-0.3-5.3-1.3-5.7-1.4c-0.5-0.1-5.8-1.1-5.8-1.3c0,6.9,0,13.7,0,20.6c-2.5,0.4-5.1,0.7-7.6,0.8V62.3h-9.5v16
		c-1.7-0.1-3.3-0.2-5-0.4V59.7H60.6v16c-2.2-0.6-4.4-1.2-6.5-2c0.2,0.1-0.1,5.2-0.1,5.7c0,1.3,0,2.7,0,4c0,0.2-0.1,1.6,0,1.7
		c2.1,0.8,4.3,1.4,6.5,2v36.7h12.2V89.3c1.6,0.2,3.3,0.3,5,0.4v18.8h9.5V89.6c2.5-0.2,5.1-0.4,7.6-0.8c0,11.6,0,23.2,0,34.9
		c0,3.2,0,6.3,0,9.5c0,0.3,5.3,1.3,5.7,1.4c0.5,0.1,5.8,1.1,5.8,1.3c0-8.6,0-17.3,0-25.9c0-7.9,0-15.8,0-23.7
		c1.3-0.4,2.5-0.8,3.8-1.2c0.3-0.1,0.1-5.2,0.1-5.7C110.2,78,110.2,76.7,110.2,75.3z"/>
	<polygon class="st0" points="177.1,98.8 177.1,92.7 202.6,76.1 196.9,67.4 177.1,80.4 177.1,53.1 164.9,53.1 164.9,88.3 
		156.3,93.9 162,102.6 164.9,100.7 164.9,134 177.1,134 177.1,115.2 201.8,138.9 210.2,130.1 177.3,98.6 	"/>
	<path class="st0" d="M30.6,82.5c0-1.4,0-2.8,0-4.2c0-1.4,0-2.8,0-4.2c0-0.2-0.2-1.7,0-1.7c-7.1,5.4-15.5,8.7-24.4,9
		c-0.2,0,0.1,11.9,0,11.9c8.9-0.4,17.4-3.6,24.4-9C30.7,84.2,30.6,82.4,30.6,82.5z"/>
	<path class="st0" d="M57.4,62.4v-13h-11c0-3.9,0-7.9,0-11.8c7.4-0.5,14.7-1,22.1-1.5c2.3-0.2,4.5-0.3,6.8-0.5c0.1,0-1-2-0.9-1.7
		c-0.8-1.3-1.6-2.7-2.5-4c-0.9-1.3-1.7-2.6-2.7-3.9c-0.2-0.3-0.9-1.5-1.3-1.5c-6.1,0.4-12.2,0.8-18.3,1.2c-1.1,0.1-2.2,0.1-3.3,0.2
		c0-0.4,0-0.7,0-1.1c0-1,0-2,0-3c0-0.4,0.1-1.1,0-1.5c0-0.1,0-0.1,0-0.2c0-0.3-6.1-1.5-6.7-1.6c-0.5-0.1-6.7-1.3-6.7-1.5
		c0,3.3,0,6.5,0,9.8c-4.2,0.3-8.4,0.6-12.6,0.8c-2.3,0.2-4.5,0.3-6.8,0.5c-0.1,0,1,2,0.9,1.7c0.8,1.3,1.6,2.7,2.5,4
		c0.9,1.3,1.7,2.6,2.7,3.9c0.2,0.3,0.9,1.5,1.3,1.5c4-0.3,8-0.5,12-0.8c0,3.6,0,7.3,0,10.9H12.6v13h20.5c0,9,0,18,0,27
		c0,9.6,0,19.2,0,28.8c0,3.2,0,6.3,0,9.5c0,1,0,2,0,3c0,0.4-0.1,1.1,0,1.5c0,0.1,0,0.1,0,0.2c0,0.3,6.1,1.5,6.7,1.6
		c0.5,0.1,6.7,1.3,6.7,1.5c0-3.8,0-7.7,0-11.5c0-9.2,0-18.4,0-27.6c0-11.1,0-22.2,0-33.3c0-0.3,0-0.5,0-0.8H57.4z"/>
	<path class="st0" d="M154.8,64.8c-1-0.2-2.1-0.4-3.2-0.6c0-0.6,0-1.3,0-1.9c0-0.3-5-1.2-5.5-1.3c-0.4-0.1-5.5-1.1-5.5-1.2
		c0,1,0,2.1,0,3.1c-3.3-0.2-6.6-0.3-9.8-0.3c0-0.8,0-1.5,0-2.3c0-2.7,0-5.4,0-8.1c0-0.3-5.9-1.5-6.4-1.6c-0.5-0.1-6.5-1.3-6.5-1.5
		c0,7.4,0,14.8,0,22.2c0,11.7,0,23.5,0,35.2c0,2.7,0,5.4,0,8.1c0,0.3,5.9,1.5,6.4,1.6c0.5,0.1,6.5,1.3,6.5,1.5c0-7.4,0-14.8,0-22.2
		c0-7,0-14,0-21c3.3,0,6.6,0.1,9.8,0.3c0,3.3,0,6.5,0,9.8c0,13.2,0,26.4,0,39.6c0,3,0,6,0,9c0,0.3,5,1.2,5.5,1.3
		c0.4,0.1,5.5,1.1,5.5,1.2c0-8.3,0-16.6,0-24.9c0-11.6,0-23.2,0-34.8c1.1,0.2,2.1,0.4,3.2,0.6c-0.1,0,0.1-5.5,0.1-6
		C154.8,70.3,155.1,64.8,154.8,64.8z"/>
	<path class="st0" d="M133.5,50c8.8-1.1,17.8,0.3,25.7,4.4c0,0,0-2,0-1.7c0-1.4,0-2.8,0-4.2c0-1.4,0-2.8,0-4.2c0-0.2,0.1-1.7,0-1.7
		c-7.9-4.1-16.8-5.6-25.7-4.4c-0.2,0-0.1,5.5-0.1,6C133.4,44.5,133.5,50,133.5,50z"/>
	<circle class="st0" cx="224.1" cy="88.7" r="10.8"/>
</g>
</svg>
